<?xml version="1.0" encoding="utf-8"?>
<!-- Generator: Adobe Illustrator 20.1.0, SVG Export Plug-In . SVG Version: 6.00 Build 0)  -->
<svg version="1.1" id="Layer_1" xmlns="http://www.w3.org/2000/svg" xmlns:xlink="http://www.w3.org/1999/xlink" x="0px" y="0px"
	 viewBox="0 0 1086.6 154.5" style="enable-background:new 0 0 1086.6 154.5;" xml:space="preserve">
<style type="text/css">
	.st0{fill:#FFFFFF;}
	.st1{fill:#F58220;}
	.st2{fill:#FBAE40;}
	.st3{fill:#404242;}
</style>
<g>
	<g>
		<path class="st0" d="M241.4,152.5l2-5.2c5.6-14.6,21.6-26.6,36.4-27.2l27.3-1.6c1.2-0.1,2.4-1,2.9-2.2c0.3-0.8,0.2-1.6-0.3-2.2
			c-0.4-0.6-1.1-1-1.9-1l-26.3-1.6c-6.5-0.3-11.9-2.9-15.1-7.5c-3.5-4.9-4.3-11.5-2.2-18.7l4.8-16.7c0.2-0.6,0.6-1.1,1.2-1.3l-0.1,0
			l-7.1-3.1c0,0.5-0.1,1.1-0.3,1.6l-7.1,18.5c-5.6,14.6-21.6,26.6-36.3,27.2l-124.3,1.6c-1.3,0.1-2.5,1-2.9,2.2
			c-0.3,0.8-0.2,1.6,0.3,2.2c0.4,0.6,1.1,1,1.9,1l123.2,1.6c6.5,0.3,11.9,3,15.1,7.5c3.5,4.9,4.3,11.5,2.2,18.7l-1.7,6
			c-0.4,1.3-1.5,2.1-2.8,2.1l12.3,0C241.7,154.4,241,153.4,241.4,152.5z"/>
		<path class="st1" d="M233.2,152.3l1.7-6c2.1-7.2,1.3-13.8-2.2-18.7c-3.2-4.5-8.6-7.1-15.1-7.5l-123.2-1.6c-0.8,0-1.5-0.4-1.9-1
			c-0.4-0.6-0.5-1.4-0.3-2.2c0.4-1.2,1.6-2.1,2.9-2.2l124.3-1.6c14.7-0.7,30.7-12.6,36.3-27.2l7.1-18.5c0.2-0.5,0.3-1,0.3-1.6
			c0-0.3,0-0.6-0.1-0.9C255,27.1,222.7,0,184.1,0c-35.6,0-65.8,23-76.7,54.9c-7-5.3-15.9-8-25.6-7.1C64.8,49.5,51,63.3,49.3,80.4
			c-0.4,4.4-0.1,8.7,0.9,12.7C22.4,93.9,0,116.8,0,144.9c0,2.5,0.2,5,0.5,7.5c0.2,1.2,1.2,2.1,2.4,2.1l227.4,0c0,0,0,0,0.1,0
			C231.7,154.4,232.8,153.5,233.2,152.3z"/>
		<path class="st2" d="M274.2,67.1c-1.1,0-2.3,0-3.4,0.1c-0.2,0-0.4,0.1-0.5,0.1c-0.6,0.2-1.1,0.7-1.2,1.3l-4.8,16.7
			c-2.1,7.2-1.3,13.8,2.2,18.7c3.2,4.5,8.6,7.1,15.1,7.5l26.3,1.6c0.8,0,1.5,0.4,1.9,1c0.4,0.6,0.5,1.5,0.3,2.2
			c-0.4,1.2-1.6,2.1-2.9,2.2l-27.3,1.6c-14.8,0.7-30.8,12.6-36.4,27.2l-2,5.2c-0.4,0.9,0.3,1.9,1.3,2c0,0,0,0,0.1,0h93.9
			c1.1,0,2.1-0.7,2.4-1.8c1.6-5.8,2.5-11.9,2.5-18.2C341.5,97.2,311.4,67.1,274.2,67.1z"/>
	</g>
	<g>
		<path class="st3" d="M1080.6,110c-3.4,0-6.1-2.7-6.1-6.1c0-3.3,2.7-6.1,6.1-6.1c3.4,0,6.1,2.7,6.1,6.1
			C1086.6,107.3,1083.9,110,1080.6,110 M1080.6,99c-2.7,0-4.9,2.2-4.9,4.9c0,2.7,2.2,4.9,4.9,4.9c2.7,0,4.9-2.2,4.9-4.9
			C1085.4,101.2,1083.2,99,1080.6,99 M1083.6,107.1h-1.4l-1.2-2.3h-1.6v2.3h-1.3v-6.7h3.2c1.4,0,2.3,0.9,2.3,2.2c0,1-0.6,1.7-1.4,2
			L1083.6,107.1z M1081.3,103.6c0.5,0,1-0.3,1-1c0-0.8-0.4-1-1-1h-2v2H1081.3z"/>
		<polygon class="st3" points="445.1,97.3 460.6,97.3 460.6,139.7 487.8,139.7 487.8,153.3 445.1,153.3 		"/>
		<path class="st3" d="M503.9,125.5v-0.2c0-16.1,13-29.2,30.3-29.2c17.3,0,30.1,12.9,30.1,29v0.2c0,16.1-13,29.2-30.3,29.2
			C516.7,154.5,503.9,141.6,503.9,125.5 M548.4,125.5v-0.2c0-8.1-5.8-15.1-14.4-15.1c-8.5,0-14.2,6.9-14.2,15v0.2
			c0,8.1,5.8,15.1,14.3,15.1C542.8,140.4,548.4,133.6,548.4,125.5"/>
		<path class="st3" d="M583.3,128.7V97.3h15.8v31.2c0,8.1,4.1,11.9,10.3,11.9c6.2,0,10.3-3.7,10.3-11.5V97.3h15.8v31.1
			c0,18.1-10.3,26-26.3,26C593.4,154.4,583.3,146.3,583.3,128.7"/>
		<path class="st3" d="M659.4,97.3H681c20,0,31.7,11.5,31.7,27.7v0.2c0,16.2-11.8,28.2-32,28.2h-21.3V97.3z M681.3,139.6
			c9.3,0,15.5-5.1,15.5-14.2v-0.2c0-9-6.2-14.2-15.5-14.2h-6.3v28.5H681.3z"/>
		<polygon class="st3" points="735.3,97.3 780.1,97.3 780.1,110.9 750.8,110.9 750.8,120.4 777.3,120.4 777.3,133.3 750.8,133.3 
			750.8,153.3 735.3,153.3 		"/>
		<polygon class="st3" points="801.8,97.3 817.3,97.3 817.3,139.7 844.5,139.7 844.5,153.3 801.8,153.3 		"/>
		<path class="st3" d="M885.1,96.9h15l23.9,56.5h-16.7l-4.1-10h-21.6l-4,10h-16.3L885.1,96.9z M898.7,131.2l-6.2-15.9l-6.3,15.9
			H898.7z"/>
		<path class="st3" d="M944,97.3h26.5c8.6,0,14.5,2.2,18.3,6.1c3.3,3.2,5,7.5,5,13.1v0.2c0,8.6-4.6,14.3-11.5,17.2l13.4,19.6h-18
			l-11.3-17h-6.8v17H944V97.3z M969.8,124.2c5.3,0,8.3-2.6,8.3-6.7v-0.2c0-4.4-3.2-6.7-8.4-6.7h-10.2v13.5H969.8z"/>
		<polygon class="st3" points="1016.2,97.3 1061.3,97.3 1061.3,110.5 1031.6,110.5 1031.6,119 1058.5,119 1058.5,131.2 
			1031.6,131.2 1031.6,140.1 1061.7,140.1 1061.7,153.3 1016.2,153.3 		"/>
		<path class="st3" d="M411,132c-2.2,4.9-6.8,8.4-12.8,8.4c-8.5,0-14.3-7.1-14.3-15.1v-0.2c0-8.1,5.7-15,14.2-15
			c6.4,0,11.3,3.9,13.3,9.3h16.4c-2.6-13.4-14.4-23.3-29.6-23.3c-17.3,0-30.3,13.1-30.3,29.2v0.2c0,16.1,12.8,29,30.1,29
			c14.8,0,26.4-9.6,29.4-22.4H411z"/>
	</g>
</g>
</svg>
